<svg xmlns="http://www.w3.org/2000/svg" viewBox="0 0 512 512" width="100%" height="100%" shape-rendering="geometricPrecision">
  <style>
    .brand-n {
      fill: #050505;
    }
    @media (prefers-color-scheme: dark) {
      .brand-n {
        fill: #FFFFFF;
      }
    }
  </style>
  
  <!-- Lowercase 'n' (truer to Outfit font: straight vertical left edge, flat top terminal, clean crotch, crisp stems) -->
  <path class="brand-n" d="M 80,400 V 150 H 136 V 210 C 145,175 170,150 205,150 C 255,150 290,185 290,235 V 400 H 234 V 235 C 234,210 220,196 200,196 C 175,196 136,215 136,250 V 400 Z" />
  
  <!-- Superscript '3' in brand pink (perfectly balanced geometric center-line) -->
  <path d="M 345,132 C 345,112 362,100 382,100 C 405,100 420,115 420,130 C 420,146 405,160 385,160 C 405,160 420,174 420,190 C 420,205 405,220 382,220 C 362,220 345,208 345,188" fill="none" stroke="#FF2E88" stroke-width="34" stroke-linecap="round" stroke-linejoin="round" />
  
  <!-- Baseline dot in brand pink (diameter 56px, matching 'n' stem thickness) -->
  <circle cx="401" cy="374" r="28" fill="#FF2E88" />
</svg>